<svg width="31" height="30" viewBox="0 0 31 30" fill="none" xmlns="http://www.w3.org/2000/svg">
<path d="M15.5 2.70375C19.505 2.70375 19.98 2.71875 21.5625 2.79125C25.6275 2.97625 27.5262 4.905 27.7112 8.94C27.7837 10.5212 27.7975 10.9963 27.7975 15.0013C27.7975 19.0075 27.7825 19.4813 27.7112 21.0625C27.525 25.0938 25.6313 27.0262 21.5625 27.2112C19.98 27.2837 19.5075 27.2988 15.5 27.2988C11.495 27.2988 11.02 27.2837 9.43875 27.2112C5.36375 27.025 3.475 25.0875 3.29 21.0613C3.2175 19.48 3.2025 19.0063 3.2025 15C3.2025 10.995 3.21875 10.5212 3.29 8.93875C3.47625 4.905 5.37 2.975 9.43875 2.79C11.0212 2.71875 11.495 2.70375 15.5 2.70375ZM15.5 0C11.4262 0 10.9163 0.0175 9.31625 0.09C3.86875 0.34 0.84125 3.3625 0.59125 8.815C0.5175 10.4163 0.5 10.9262 0.5 15C0.5 19.0737 0.5175 19.585 0.59 21.185C0.84 26.6325 3.8625 29.66 9.315 29.91C10.9163 29.9825 11.4262 30 15.5 30C19.5737 30 20.085 29.9825 21.685 29.91C27.1275 29.66 30.1625 26.6375 30.4088 21.185C30.4825 19.585 30.5 19.0737 30.5 15C30.5 10.9262 30.4825 10.4163 30.41 8.81625C30.165 3.37375 27.1388 0.34125 21.6862 0.09125C20.085 0.0175 19.5737 0 15.5 0ZM15.5 7.2975C11.2463 7.2975 7.7975 10.7463 7.7975 15C7.7975 19.2537 11.2463 22.7038 15.5 22.7038C19.7537 22.7038 23.2025 19.255 23.2025 15C23.2025 10.7463 19.7537 7.2975 15.5 7.2975ZM15.5 20C12.7387 20 10.5 17.7625 10.5 15C10.5 12.2387 12.7387 10 15.5 10C18.2612 10 20.5 12.2387 20.5 15C20.5 17.7625 18.2612 20 15.5 20ZM23.5075 5.19375C22.5125 5.19375 21.7062 6 21.7062 6.99375C21.7062 7.9875 22.5125 8.79375 23.5075 8.79375C24.5012 8.79375 25.3062 7.9875 25.3062 6.99375C25.3062 6 24.5012 5.19375 23.5075 5.19375Z" fill="black"/>
</svg>
