<svg width="171" height="49" viewBox="0 0 171 49" fill="none" xmlns="http://www.w3.org/2000/svg">
<path d="M4.13002 36.3376L13.1604 27.3104L3.19882 20.6224C2.50914 20.2509 1.94956 19.6774 1.59516 18.9788C1.24075 18.2802 1.10848 17.49 1.2161 16.714C1.32371 15.9381 1.66605 15.2137 2.1972 14.6379C2.72834 14.0621 3.42288 13.6625 4.18762 13.4928L47.65 1L35.1572 44.4016C34.987 45.1661 34.5871 45.8603 34.0112 46.3911C33.4352 46.9219 32.7107 47.2638 31.9348 47.3711C31.1589 47.4783 30.3688 47.3458 29.6704 46.9912C28.9721 46.6366 28.3988 46.0769 28.0276 45.3872L21.3396 35.4896L17.538 39.2912" fill="#41EEEE"/>
<path d="M26.2844 32.962C21.7084 32.962 18.3754 32.225 16.2854 30.751C14.1954 29.255 13.1504 27.22 13.1504 24.646V24.151H15.5264V24.613C15.5264 28.881 19.1124 31.015 26.2844 31.015C30.3324 31.015 33.1374 30.608 34.6994 29.794C36.2614 28.958 37.0424 27.803 37.0424 26.329C37.0424 25.053 36.5474 24.096 35.5574 23.458C34.5674 22.798 33.3464 22.369 31.8944 22.171C30.4644 21.951 28.4954 21.775 25.9874 21.643C23.2374 21.511 21.0154 21.313 19.3214 21.049C17.6494 20.785 16.2304 20.235 15.0644 19.399C13.8984 18.541 13.3154 17.265 13.3154 15.571C13.3154 11.281 17.6384 9.13601 26.2844 9.13601C30.8164 9.13601 34.1054 9.86201 36.1514 11.314C38.2194 12.744 39.2534 14.713 39.2534 17.221V17.452H36.8774V17.221C36.8774 15.329 36.0524 13.833 34.4024 12.733C32.7524 11.633 30.0464 11.083 26.2844 11.083C19.2224 11.083 15.6914 12.601 15.6914 15.637C15.6914 16.781 16.1534 17.65 17.0774 18.244C18.0014 18.816 19.1454 19.201 20.5094 19.399C21.8954 19.575 23.7874 19.718 26.1854 19.828C29.0454 19.96 31.3444 20.169 33.0824 20.455C34.8424 20.719 36.3384 21.313 37.5704 22.237C38.8024 23.139 39.4184 24.503 39.4184 26.329C39.4184 28.419 38.4284 30.047 36.4484 31.213C34.4904 32.379 31.1024 32.962 26.2844 32.962Z" fill="white"/>
<path d="M54.4389 32.962C52.195 32.962 50.2589 32.588 48.631 31.84C47.025 31.07 45.804 30.036 44.968 28.738C44.132 27.418 43.714 25.944 43.714 24.316C43.714 22.666 44.132 21.192 44.968 19.894C45.804 18.574 47.025 17.54 48.631 16.792C50.2589 16.022 52.195 15.637 54.4389 15.637C56.5289 15.637 58.3439 15.945 59.8839 16.561C61.424 17.177 62.6339 18.024 63.514 19.102C64.416 20.18 64.966 21.412 65.1639 22.798H63.019C62.711 21.236 61.8199 19.96 60.3459 18.97C58.8939 17.958 56.9249 17.452 54.4389 17.452C52.6349 17.452 51.084 17.76 49.7859 18.376C48.5099 18.97 47.5309 19.784 46.8489 20.818C46.1889 21.852 45.859 23.018 45.859 24.316C45.859 25.592 46.1889 26.747 46.8489 27.781C47.5309 28.815 48.5099 29.64 49.7859 30.256C51.084 30.85 52.6349 31.147 54.4389 31.147C56.9249 31.147 58.8939 30.652 60.3459 29.662C61.8199 28.65 62.711 27.363 63.019 25.801H65.1639C64.966 27.165 64.416 28.386 63.514 29.464C62.6339 30.542 61.424 31.4 59.8839 32.038C58.3439 32.654 56.5289 32.962 54.4389 32.962Z" fill="white"/>
<path d="M69.705 32.599V9.499H71.85V15.604C71.85 16.572 71.817 17.474 71.751 18.31C71.707 19.146 71.608 20.213 71.454 21.511H71.817C72.235 19.817 73.192 18.42 74.688 17.32C76.206 16.198 78.186 15.637 80.628 15.637C83.642 15.637 86.007 16.506 87.723 18.244C89.439 19.982 90.297 22.391 90.297 25.471V32.599H88.119V25.867C88.119 23.183 87.404 21.115 85.974 19.663C84.566 18.189 82.575 17.452 80.001 17.452C77.449 17.452 75.447 18.189 73.995 19.663C72.565 21.115 71.85 23.183 71.85 25.867V32.599H69.705Z" fill="white"/>
<path d="M105.836 32.962C103.504 32.962 101.513 32.588 99.8627 31.84C98.2127 31.092 96.9587 30.069 96.1007 28.771C95.2647 27.451 94.8467 25.966 94.8467 24.316C94.8467 22.666 95.2647 21.192 96.1007 19.894C96.9587 18.574 98.2127 17.54 99.8627 16.792C101.513 16.022 103.504 15.637 105.836 15.637C108.168 15.637 110.159 16.022 111.809 16.792C113.481 17.54 114.735 18.574 115.571 19.894C116.429 21.192 116.858 22.666 116.858 24.316C116.858 25.966 116.429 27.451 115.571 28.771C114.735 30.069 113.481 31.092 111.809 31.84C110.159 32.588 108.168 32.962 105.836 32.962ZM105.836 31.147C107.728 31.147 109.334 30.85 110.654 30.256C111.996 29.662 113.008 28.848 113.69 27.814C114.372 26.78 114.713 25.614 114.713 24.316C114.713 23.018 114.372 21.852 113.69 20.818C113.008 19.784 111.996 18.97 110.654 18.376C109.334 17.76 107.728 17.452 105.836 17.452C103.966 17.452 102.36 17.76 101.018 18.376C99.6977 18.97 98.6967 19.784 98.0147 20.818C97.3327 21.852 96.9917 23.018 96.9917 24.316C96.9917 25.614 97.3327 26.78 98.0147 27.814C98.6967 28.826 99.6977 29.64 101.018 30.256C102.36 30.85 103.966 31.147 105.836 31.147Z" fill="white"/>
<path d="M128.595 30.751H135.36V32.599H118.827V30.751H126.417V13.756C126.417 12.766 126.197 12.073 125.757 11.677C125.339 11.281 124.591 11.083 123.513 11.083C122.985 11.083 122.523 11.127 122.127 11.215C121.753 11.281 121.302 11.413 120.774 11.611V9.73001C121.786 9.33401 122.886 9.13601 124.074 9.13601C125.68 9.13601 126.835 9.45501 127.539 10.093C128.243 10.731 128.595 11.732 128.595 13.096V30.751Z" fill="white"/>
<path d="M158.723 24.316C158.723 24.536 158.701 24.844 158.657 25.24H139.121C139.341 27.022 140.21 28.474 141.728 29.596C143.246 30.696 145.292 31.246 147.866 31.246C150.176 31.246 151.98 30.872 153.278 30.124C154.598 29.354 155.522 28.463 156.05 27.451H158.228C157.678 28.925 156.556 30.212 154.862 31.312C153.168 32.412 150.825 32.962 147.833 32.962C145.545 32.962 143.576 32.588 141.926 31.84C140.298 31.092 139.066 30.069 138.23 28.771C137.394 27.451 136.976 25.977 136.976 24.349C136.976 22.677 137.394 21.192 138.23 19.894C139.088 18.574 140.331 17.54 141.959 16.792C143.587 16.022 145.556 15.637 147.866 15.637C150.132 15.637 152.079 16.022 153.707 16.792C155.357 17.54 156.6 18.574 157.436 19.894C158.294 21.192 158.723 22.666 158.723 24.316ZM147.866 17.353C145.248 17.353 143.18 17.925 141.662 19.069C140.144 20.213 139.286 21.72 139.088 23.59H156.611C156.479 22.402 156.05 21.335 155.324 20.389C154.62 19.443 153.63 18.706 152.354 18.178C151.1 17.628 149.604 17.353 147.866 17.353ZM142.256 13.261C141.926 12.909 141.662 12.491 141.464 12.007C141.266 11.501 141.167 11.017 141.167 10.555C141.167 9.741 141.442 9.07 141.992 8.542C142.564 8.014 143.312 7.75 144.236 7.75C145.072 7.75 145.798 7.948 146.414 8.344C147.03 8.74 147.701 9.301 148.427 10.027C148.999 10.599 149.494 11.028 149.912 11.314C150.33 11.6 150.781 11.743 151.265 11.743C151.749 11.743 152.123 11.611 152.387 11.347C152.651 11.083 152.783 10.709 152.783 10.225C152.783 9.829 152.684 9.411 152.486 8.971C152.31 8.531 152.068 8.124 151.76 7.75H153.443C153.773 8.124 154.037 8.553 154.235 9.037C154.433 9.521 154.532 9.994 154.532 10.456C154.532 11.292 154.246 11.974 153.674 12.502C153.124 13.008 152.387 13.261 151.463 13.261C150.627 13.261 149.901 13.063 149.285 12.667C148.669 12.271 147.998 11.71 147.272 10.984C146.7 10.412 146.205 9.983 145.787 9.697C145.369 9.411 144.918 9.268 144.434 9.268C143.95 9.268 143.576 9.411 143.312 9.697C143.048 9.961 142.916 10.335 142.916 10.819C142.916 11.237 143.004 11.666 143.18 12.106C143.378 12.524 143.631 12.909 143.939 13.261H142.256Z" fill="white"/>
<path fill-rule="evenodd" clip-rule="evenodd" d="M48.3573 0.293049C48.6145 0.550346 48.7116 0.927026 48.611 1.27664L36.1262 44.6505C35.9078 45.6016 35.4069 46.4648 34.6888 47.1265C33.9628 47.7955 33.0496 48.2265 32.0717 48.3617C31.0938 48.4969 30.098 48.3298 29.2177 47.8828C28.3533 47.4439 27.6409 46.7557 27.1725 45.9078L21.1897 37.0538L18.2451 39.9983C17.8546 40.3889 17.2214 40.3889 16.8309 39.9983C16.4404 39.6078 16.4404 38.9746 16.8309 38.5841L20.6325 34.7825C20.8436 34.5714 21.1379 34.4657 21.4351 34.4942C21.7322 34.5227 22.0011 34.6824 22.1682 34.9297L28.8562 44.8273C28.8749 44.8551 28.8923 44.8838 28.9082 44.9133C29.1827 45.4234 29.6067 45.8373 30.1232 46.0996C30.6397 46.3618 31.224 46.4599 31.7979 46.3805C32.3717 46.3012 32.9075 46.0483 33.3335 45.6558C33.7595 45.2632 34.0552 44.7498 34.1811 44.1843C34.1855 44.1644 34.1906 44.1446 34.1962 44.125L46.189 2.46046L4.46387 14.4539C4.44417 14.4596 4.42431 14.4646 4.4043 14.4691C3.83871 14.5946 3.32505 14.8901 2.93222 15.316C2.5394 15.7418 2.28621 16.2776 2.20662 16.8514C2.12703 17.4253 2.22485 18.0098 2.48696 18.5265C2.74907 19.0431 3.16293 19.4673 3.673 19.742C3.70154 19.7574 3.72931 19.7741 3.75622 19.7922L13.7178 26.4802C13.9661 26.6469 14.1268 26.9159 14.1557 27.2136C14.1847 27.5112 14.0789 27.8062 13.8674 28.0177L4.837 37.0449C4.44641 37.4353 3.81324 37.4352 3.42279 37.0446C3.03233 36.654 3.03244 36.0208 3.42304 35.6304L11.5935 27.4629L2.67946 21.4782C1.83091 21.0095 1.14228 20.2965 0.703351 19.4313C0.256658 18.5508 0.0899417 17.5547 0.225579 16.5767C0.361215 15.5987 0.792712 14.6856 1.46218 13.9599C2.12429 13.2421 2.98784 12.7416 3.93921 12.5237L47.3738 0.0389395C47.7234 -0.0615627 48.1001 0.0357526 48.3573 0.293049Z" fill="white"/>
<path d="M8.64041 45.55C8.16074 45.55 7.72676 45.4767 7.33846 45.3302C6.95015 45.1653 6.44765 44.9271 5.83093 44.6157C5.28274 44.3225 4.81449 44.1027 4.42619 43.9561C4.06073 43.8096 3.66101 43.7363 3.22703 43.7363C2.70168 43.7363 2.26769 43.8829 1.92507 44.176C1.58245 44.4508 1.36546 44.863 1.2741 45.4126H1C1.02284 44.3134 1.28552 43.4615 1.78802 42.8569C2.29053 42.2523 2.97577 41.95 3.84374 41.95C4.32341 41.95 4.75739 42.0325 5.14569 42.1974C5.55684 42.3439 6.04792 42.5729 6.61895 42.8844C7.23567 43.1958 7.71534 43.4248 8.05795 43.5714C8.42342 43.6996 8.81172 43.7638 9.22286 43.7638C9.74821 43.7638 10.1822 43.6264 10.5248 43.3516C10.8903 43.0584 11.1187 42.637 11.21 42.0874H11.4841C11.4385 43.1867 11.1644 44.0386 10.6619 44.6432C10.1594 45.2477 9.48553 45.55 8.64041 45.55Z" fill="white"/>
</svg>
